<svg width="50" height="50" viewBox="0 0 50 50" fill="currentColor" xmlns="http://www.w3.org/2000/svg">
<g clip-path="url(#clip0_15_41)">
<path d="M11.225 45.8333H5.20829C4.93203 45.8333 4.66707 45.7236 4.47172 45.5282C4.27637 45.3329 4.16663 45.0679 4.16663 44.7917V26.1458C4.16663 25.8696 4.27637 25.6046 4.47172 25.4093C4.66707 25.2139 4.93203 25.1042 5.20829 25.1042C5.48456 25.1042 5.74951 25.2139 5.94486 25.4093C6.14021 25.6046 6.24996 25.8696 6.24996 26.1458V43.75H11.225C11.5012 43.75 11.7662 43.8597 11.9615 44.0551C12.1569 44.2504 12.2666 44.5154 12.2666 44.7917C12.2666 45.0679 12.1569 45.3329 11.9615 45.5282C11.7662 45.7236 11.5012 45.8333 11.225 45.8333ZM34.375 45.8333H19.7916C19.5154 45.8333 19.2504 45.7236 19.0551 45.5282C18.8597 45.3329 18.75 45.0679 18.75 44.7917C18.75 44.5154 18.8597 44.2504 19.0551 44.0551C19.2504 43.8597 19.5154 43.75 19.7916 43.75H33.3333V22.9167H26.0416C25.7654 22.9167 25.5004 22.8069 25.3051 22.6116C25.1097 22.4162 25 22.1513 25 21.875C25 21.5987 25.1097 21.3338 25.3051 21.1384C25.5004 20.9431 25.7654 20.8333 26.0416 20.8333H34.375C34.6512 20.8333 34.9162 20.9431 35.1115 21.1384C35.3069 21.3338 35.4166 21.5987 35.4166 21.875V44.7917C35.4166 45.0679 35.3069 45.3329 35.1115 45.5282C34.9162 45.7236 34.6512 45.8333 34.375 45.8333Z" fill="white"/>
<path d="M48.9583 45.8333H44.7916C44.5154 45.8333 44.2504 45.7236 44.0551 45.5282C43.8597 45.3329 43.75 45.0679 43.75 44.7917C43.75 44.5154 43.8597 44.2505 44.0551 44.0551C44.2504 43.8597 44.5154 43.75 44.7916 43.75H47.9166V36.5C47.915 34.8595 47.2626 33.2866 46.1025 32.1266C44.9425 30.9666 43.3696 30.3142 41.7291 30.3125H35.4166V43.75H36.4583C36.7346 43.75 36.9995 43.8597 37.1949 44.0551C37.3902 44.2505 37.5 44.5154 37.5 44.7917C37.5 45.0679 37.3902 45.3329 37.1949 45.5282C36.9995 45.7236 36.7346 45.8333 36.4583 45.8333H34.375C34.0987 45.8333 33.8337 45.7236 33.6384 45.5282C33.443 45.3329 33.3333 45.0679 33.3333 44.7917V29.2708C33.3333 28.9946 33.443 28.7296 33.6384 28.5343C33.8337 28.3389 34.0987 28.2292 34.375 28.2292H41.7291C43.9218 28.2319 46.024 29.1042 47.5744 30.6547C49.1249 32.2052 49.9972 34.3073 50 36.5V44.7917C50 45.0679 49.8902 45.3329 49.6949 45.5282C49.4995 45.7236 49.2346 45.8333 48.9583 45.8333ZM15.625 50C12.7541 50 10.4166 47.6625 10.4166 44.7917C10.4166 41.9208 12.7541 39.5833 15.625 39.5833C18.4958 39.5833 20.8333 41.9208 20.8333 44.7917C20.8333 47.6625 18.4958 50 15.625 50ZM15.625 41.6667C13.902 41.6667 12.5 43.0688 12.5 44.7917C12.5 46.5146 13.902 47.9167 15.625 47.9167C17.3479 47.9167 18.75 46.5146 18.75 44.7917C18.75 43.0688 17.3479 41.6667 15.625 41.6667Z" fill="white"/>
<path d="M40.625 50C37.7542 50 35.4167 47.6625 35.4167 44.7917C35.4167 41.9208 37.7542 39.5833 40.625 39.5833C43.4958 39.5833 45.8333 41.9208 45.8333 44.7917C45.8333 47.6625 43.4958 50 40.625 50ZM40.625 41.6667C38.9021 41.6667 37.5 43.0688 37.5 44.7917C37.5 46.5146 38.9021 47.9167 40.625 47.9167C42.3479 47.9167 43.75 46.5146 43.75 44.7917C43.75 43.0688 42.3479 41.6667 40.625 41.6667ZM12.4938 25C12.3428 24.9995 12.1936 24.9668 12.0563 24.9042L0.604174 19.5833C0.423683 19.4998 0.270878 19.3664 0.163816 19.1987C0.0567545 19.0311 -8.78198e-05 18.8364 6.81695e-06 18.6375V6.3625C-0.000627367 6.18736 0.042997 6.0149 0.12683 5.86113C0.210664 5.70735 0.331988 5.57725 0.479542 5.4829C0.627096 5.38855 0.796096 5.33301 0.970853 5.32143C1.14561 5.30985 1.32046 5.34261 1.47917 5.41667L12.9313 10.7354C13.1117 10.8189 13.2646 10.9524 13.3716 11.12C13.4787 11.2876 13.5355 11.4824 13.5354 11.6813V23.9583C13.536 24.0953 13.5094 24.231 13.4573 24.3576C13.4051 24.4842 13.3284 24.5993 13.2316 24.6961C13.1347 24.793 13.0197 24.8697 12.893 24.9218C12.7664 24.974 12.6307 25.0006 12.4938 25ZM2.08334 17.9729L11.4521 22.325V12.3458L2.08334 7.99375V17.9729Z" fill="white"/>
<path d="M12.5063 25C12.3693 25.0006 12.2336 24.974 12.107 24.9218C11.9804 24.8697 11.8653 24.793 11.7685 24.6961C11.6716 24.5993 11.5949 24.4842 11.5428 24.3576C11.4906 24.231 11.4641 24.0953 11.4646 23.9583V11.6812C11.4646 11.2771 11.7 10.9062 12.0688 10.7354L23.5209 5.41666C23.6796 5.34319 23.8543 5.31088 24.0289 5.32272C24.2034 5.33456 24.3721 5.39017 24.5195 5.48441C24.6669 5.57865 24.7882 5.7085 24.8722 5.86196C24.9561 6.01542 25.0001 6.18756 25 6.3625V18.6396C24.9999 18.8384 24.9429 19.0331 24.8359 19.2006C24.7289 19.3682 24.5762 19.5017 24.3959 19.5854L12.9438 24.9062C12.806 24.9673 12.657 24.9992 12.5063 25ZM13.5479 12.3458V22.3271L22.9167 17.9729V7.99375L13.5479 12.3458Z" fill="white"/>
<path d="M23.9583 7.40417C23.8073 7.40387 23.6581 7.37119 23.5208 7.30834L12.5062 2.18959L1.47914 7.30625C1.35442 7.36874 1.21843 7.40555 1.07922 7.41449C0.940005 7.42342 0.800417 7.4043 0.668735 7.35827C0.537052 7.31223 0.415957 7.24022 0.312635 7.1465C0.209312 7.05277 0.125867 6.93925 0.0672507 6.81267C0.00863384 6.68608 -0.0239606 6.54901 -0.0285988 6.40959C-0.033237 6.27017 -0.00982456 6.13124 0.0402495 6.00104C0.0903237 5.87084 0.166039 5.75202 0.262904 5.65164C0.359769 5.55126 0.47581 5.47135 0.604141 5.41667L12.0687 0.0958353C12.2061 0.0320618 12.3558 -0.000976562 12.5073 -0.000976562C12.6587 -0.000976562 12.8084 0.0320618 12.9458 0.0958353L24.3958 5.41667C24.6096 5.51764 24.7828 5.68819 24.887 5.90041C24.9912 6.11263 25.0202 6.35394 24.9694 6.58484C24.9186 6.81573 24.7909 7.02253 24.6072 7.17138C24.4235 7.32023 24.1947 7.4023 23.9583 7.40417Z" fill="white"/>
<path d="M18.7501 14.5833C18.4738 14.5833 18.2088 14.4736 18.0135 14.2782C17.8181 14.0829 17.7084 13.8179 17.7084 13.5417V9.46042L6.96881 4.33542C6.84192 4.27867 6.72767 4.19709 6.63279 4.09551C6.53792 3.99392 6.46433 3.87437 6.41638 3.7439C6.36842 3.61343 6.34706 3.47468 6.35356 3.33583C6.36005 3.19698 6.39427 3.06084 6.4542 2.93542C6.51413 2.81 6.59856 2.69784 6.7025 2.60555C6.80645 2.51327 6.92782 2.44272 7.05945 2.39806C7.19109 2.35341 7.33033 2.33555 7.46897 2.34555C7.60762 2.35554 7.74286 2.39318 7.86673 2.45625L19.1292 7.82917C19.3227 7.90569 19.4891 8.03809 19.6071 8.20951C19.7251 8.38092 19.7893 8.58358 19.7917 8.79167V13.5417C19.7917 13.8179 19.682 14.0829 19.4866 14.2782C19.2913 14.4736 19.0263 14.5833 18.7501 14.5833Z" fill="white"/>
</g>
<defs>
<clipPath id="clip0_15_41">
<rect width="50" height="50" fill="white"/>
</clipPath>
</defs>
</svg>
