<svg width="31" height="31" viewBox="0 0 31 31" fill="none" xmlns="http://www.w3.org/2000/svg">
<g clip-path="url(#clip0_118_6120)">
<path d="M22.7501 20.0416C24.6262 17.4815 25.4664 14.3075 25.1028 11.1545C24.7392 8.00158 23.1985 5.10217 20.7889 3.03639C18.3793 0.970607 15.2786 -0.109195 12.1071 0.0130088C8.93557 0.135213 5.92714 1.45041 3.68368 3.69548C1.44021 5.94055 0.127167 8.94992 0.00723264 12.1215C-0.112702 15.2931 0.969319 18.3931 3.03682 20.8012C5.10433 23.2092 8.00484 24.7479 11.1581 25.1093C14.3113 25.4706 17.4847 24.6281 20.0434 22.7502H20.0415C20.0983 22.8277 20.1616 22.902 20.2313 22.973L27.6907 30.4324C28.054 30.7959 28.5469 31.0003 29.0608 31.0005C29.5748 31.0006 30.0678 30.7967 30.4313 30.4334C30.7949 30.0701 30.9992 29.5772 30.9994 29.0633C30.9996 28.5493 30.7956 28.0563 30.4323 27.6928L22.9729 20.2334C22.9037 20.1632 22.8292 20.1004 22.7501 20.0416ZM23.25 12.5938C23.25 13.9932 22.9743 15.3789 22.4388 16.6718C21.9033 17.9647 21.1184 19.1394 20.1288 20.1289C19.1393 21.1185 17.9646 21.9034 16.6717 22.4389C15.3788 22.9744 13.9931 23.2501 12.5937 23.2501C11.1943 23.2501 9.80863 22.9744 8.51575 22.4389C7.22287 21.9034 6.04814 21.1185 5.05861 20.1289C4.06909 19.1394 3.28415 17.9647 2.74863 16.6718C2.2131 15.3789 1.93747 13.9932 1.93747 12.5938C1.93747 9.76761 3.06018 7.05715 5.05861 5.05872C7.05705 3.06028 9.76751 1.93757 12.5937 1.93757C15.4199 1.93757 18.1304 3.06028 20.1288 5.05872C22.1273 7.05715 23.25 9.76761 23.25 12.5938Z" fill="white"/>
</g>
<defs>
<clipPath id="clip0_118_6120">
<rect width="31" height="31" fill="white"/>
</clipPath>
</defs>
</svg>
