<svg width="50" height="50" viewBox="0 0 50 50" fill="white" xmlns="http://www.w3.org/2000/svg">
<g clip-path="url(#clip0_14_37)">
<path d="M13.5417 39.5833H9.37504C9.09877 39.5833 8.83382 39.4736 8.63847 39.2782C8.44312 39.0829 8.33337 38.8179 8.33337 38.5417C8.33337 38.2654 8.44312 38.0004 8.63847 37.8051C8.83382 37.6097 9.09877 37.5 9.37504 37.5H13.5417C13.818 37.5 14.0829 37.6097 14.2783 37.8051C14.4736 38.0004 14.5834 38.2654 14.5834 38.5417C14.5834 38.8179 14.4736 39.0829 14.2783 39.2782C14.0829 39.4736 13.818 39.5833 13.5417 39.5833ZM47.3959 39.5833H44.7917C44.5154 39.5833 44.2505 39.4736 44.0551 39.2782C43.8598 39.0829 43.75 38.8179 43.75 38.5417C43.75 38.2654 43.8598 38.0004 44.0551 37.8051C44.2505 37.6097 44.5154 37.5 44.7917 37.5H46.5313L47.9355 30.0167C47.9167 26.1875 44.6459 22.9167 40.625 22.9167H33.7855L30.4709 37.5H36.4584C36.7346 37.5 36.9996 37.6097 37.1949 37.8051C37.3903 38.0004 37.5 38.2654 37.5 38.5417C37.5 38.8179 37.3903 39.0829 37.1949 39.2782C36.9996 39.4736 36.7346 39.5833 36.4584 39.5833H29.1667C29.0104 39.5834 28.8561 39.5483 28.7152 39.4806C28.5743 39.413 28.4504 39.3144 28.3528 39.1924C28.2551 39.0703 28.1862 38.9279 28.1511 38.7756C28.116 38.6232 28.1157 38.465 28.15 38.3125L31.9375 21.6458C31.9896 21.4151 32.1186 21.2089 32.3034 21.0613C32.4881 20.9136 32.7177 20.8332 32.9542 20.8333H40.625C45.7938 20.8333 50 25.0396 50 30.2083L48.4188 38.7333C48.3745 38.9722 48.2479 39.188 48.061 39.3433C47.8742 39.4986 47.6388 39.5835 47.3959 39.5833Z" fill="white"/>
<path d="M40.625 43.75C37.7542 43.75 35.4167 41.4146 35.4167 38.5417C35.4167 35.6687 37.7542 33.3333 40.625 33.3333C43.4958 33.3333 45.8333 35.6687 45.8333 38.5417C45.8333 41.4146 43.4958 43.75 40.625 43.75ZM40.625 35.4167C38.9021 35.4167 37.5 36.8187 37.5 38.5417C37.5 40.2646 38.9021 41.6667 40.625 41.6667C42.3479 41.6667 43.75 40.2646 43.75 38.5417C43.75 36.8187 42.3479 35.4167 40.625 35.4167ZM17.7083 43.75C14.8375 43.75 12.5 41.4146 12.5 38.5417C12.5 35.6687 14.8375 33.3333 17.7083 33.3333C20.5792 33.3333 22.9167 35.6687 22.9167 38.5417C22.9167 41.4146 20.5792 43.75 17.7083 43.75ZM17.7083 35.4167C15.9854 35.4167 14.5833 36.8187 14.5833 38.5417C14.5833 40.2646 15.9854 41.6667 17.7083 41.6667C19.4312 41.6667 20.8333 40.2646 20.8333 38.5417C20.8333 36.8187 19.4312 35.4167 17.7083 35.4167ZM13.5417 20.8333H5.20833C4.93207 20.8333 4.66711 20.7236 4.47176 20.5282C4.27641 20.3329 4.16667 20.0679 4.16667 19.7917C4.16667 19.5154 4.27641 19.2504 4.47176 19.0551C4.66711 18.8597 4.93207 18.75 5.20833 18.75H13.5417C13.8179 18.75 14.0829 18.8597 14.2782 19.0551C14.4736 19.2504 14.5833 19.5154 14.5833 19.7917C14.5833 20.0679 14.4736 20.3329 14.2782 20.5282C14.0829 20.7236 13.8179 20.8333 13.5417 20.8333ZM13.5417 27.0833H3.125C2.84873 27.0833 2.58378 26.9736 2.38843 26.7782C2.19308 26.5829 2.08333 26.3179 2.08333 26.0417C2.08333 25.7654 2.19308 25.5004 2.38843 25.3051C2.58378 25.1097 2.84873 25 3.125 25H13.5417C13.8179 25 14.0829 25.1097 14.2782 25.3051C14.4736 25.5004 14.5833 25.7654 14.5833 26.0417C14.5833 26.3179 14.4736 26.5829 14.2782 26.7782C14.0829 26.9736 13.8179 27.0833 13.5417 27.0833ZM13.5417 33.3333H1.04167C0.765399 33.3333 0.500447 33.2236 0.305097 33.0282C0.109747 32.8329 0 32.5679 0 32.2917C0 32.0154 0.109747 31.7504 0.305097 31.5551C0.500447 31.3597 0.765399 31.25 1.04167 31.25H13.5417C13.8179 31.25 14.0829 31.3597 14.2782 31.5551C14.4736 31.7504 14.5833 32.0154 14.5833 32.2917C14.5833 32.5679 14.4736 32.8329 14.2782 33.0282C14.0829 33.2236 13.8179 33.3333 13.5417 33.3333Z" fill="white"/>
<path d="M29.1667 39.5833H21.875C21.5988 39.5833 21.3338 39.4736 21.1385 39.2782C20.9431 39.0829 20.8334 38.8179 20.8334 38.5417C20.8334 38.2654 20.9431 38.0004 21.1385 37.8051C21.3338 37.6097 21.5988 37.5 21.875 37.5H28.3355L33.0688 16.6667H9.37504C9.09877 16.6667 8.83382 16.5569 8.63847 16.3616C8.44312 16.1662 8.33337 15.9013 8.33337 15.625C8.33337 15.3487 8.44312 15.0838 8.63847 14.8884C8.83382 14.6931 9.09877 14.5833 9.37504 14.5833H34.375C34.5313 14.5833 34.6857 14.6184 34.8266 14.686C34.9675 14.7537 35.0913 14.8522 35.189 14.9743C35.2866 15.0963 35.3555 15.2388 35.3906 15.3911C35.4257 15.5434 35.4261 15.7017 35.3917 15.8542L30.1834 38.7708C30.1313 39.0016 30.0023 39.2077 29.8175 39.3554C29.6328 39.5031 29.4032 39.5835 29.1667 39.5833Z" fill="white"/>
</g>
<defs>
<clipPath id="clip0_14_37">
<rect width="50" height="50" fill="white"/>
</clipPath>
</defs>
</svg>